<svg width="48" height="48" viewBox="0 0 48 48" fill="none" xmlns="http://www.w3.org/2000/svg">
<g filter="url(#filter0_d_2967_935)">
<circle cx="22" cy="20" r="20" fill="white"/>
</g>
<path d="M22 18.14C21.6321 18.14 21.2725 18.2491 20.9666 18.4535C20.6608 18.6578 20.4224 18.9483 20.2816 19.2882C20.1408 19.6281 20.104 20.0021 20.1757 20.3629C20.2475 20.7237 20.4247 21.0551 20.6848 21.3152C20.9449 21.5753 21.2763 21.7525 21.6371 21.8243C21.9979 21.896 22.3719 21.8592 22.7118 21.7184C23.0517 21.5776 23.3422 21.3392 23.5465 21.0334C23.7509 20.7275 23.86 20.3679 23.86 20C23.86 19.7557 23.8119 19.5139 23.7184 19.2882C23.6249 19.0625 23.4879 18.8575 23.3152 18.6848C23.1425 18.5121 22.9375 18.3751 22.7118 18.2816C22.4861 18.1881 22.2443 18.14 22 18.14ZM29.4475 16.3025C29.4436 15.7233 29.3369 15.1494 29.1325 14.6075C28.982 14.2109 28.749 13.8508 28.4491 13.5509C28.1492 13.251 27.7891 13.018 27.3925 12.8675C26.8506 12.6631 26.2767 12.5564 25.6975 12.5525C24.73 12.5 24.445 12.5 22 12.5C19.555 12.5 19.27 12.5 18.3025 12.5525C17.7233 12.5564 17.1494 12.6631 16.6075 12.8675C16.2109 13.018 15.8508 13.251 15.5509 13.5509C15.251 13.8508 15.018 14.2109 14.8675 14.6075C14.6631 15.1494 14.5564 15.7233 14.5525 16.3025C14.5 17.27 14.5 17.555 14.5 20C14.5 22.445 14.5 22.73 14.5525 23.6975C14.5606 24.2787 14.6671 24.8544 14.8675 25.4C15.0174 25.7947 15.2501 26.1528 15.55 26.45C15.8486 26.7517 16.2095 26.9846 16.6075 27.1325C17.1494 27.3369 17.7233 27.4436 18.3025 27.4475C19.27 27.5 19.555 27.5 22 27.5C24.445 27.5 24.73 27.5 25.6975 27.4475C26.2767 27.4436 26.8506 27.3369 27.3925 27.1325C27.7905 26.9846 28.1514 26.7517 28.45 26.45C28.7499 26.1528 28.9826 25.7947 29.1325 25.4C29.3367 24.8554 29.4433 24.2791 29.4475 23.6975C29.5 22.73 29.5 22.445 29.5 20C29.5 17.555 29.5 17.27 29.4475 16.3025ZM27.5425 22.3025C27.5184 22.7653 27.4197 23.2212 27.25 23.6525C27.1044 24.0123 26.8879 24.3391 26.6135 24.6135C26.3391 24.8879 26.0123 25.1044 25.6525 25.25C25.2171 25.4102 24.7587 25.4988 24.295 25.5125C23.7025 25.5125 23.545 25.5125 22 25.5125C20.455 25.5125 20.2975 25.5125 19.705 25.5125C19.2413 25.4988 18.7829 25.4102 18.3475 25.25C17.9756 25.1118 17.6397 24.8913 17.365 24.605C17.0933 24.3359 16.8834 24.0109 16.75 23.6525C16.5892 23.2176 16.503 22.7586 16.495 22.295C16.495 21.7025 16.495 21.545 16.495 20C16.495 18.455 16.495 18.2975 16.495 17.705C16.503 17.2414 16.5892 16.7824 16.75 16.3475C16.8882 15.9756 17.1087 15.6397 17.395 15.365C17.6653 15.0947 17.9899 14.8851 18.3475 14.75C18.7829 14.5898 19.2413 14.5012 19.705 14.4875C20.2975 14.4875 20.455 14.4875 22 14.4875C23.545 14.4875 23.7025 14.4875 24.295 14.4875C24.7587 14.5012 25.2171 14.5898 25.6525 14.75C26.0244 14.8882 26.3603 15.1087 26.635 15.395C26.9068 15.6641 27.1166 15.9891 27.25 16.3475C27.4102 16.7829 27.4988 17.2413 27.5125 17.705C27.5125 18.2975 27.5125 18.455 27.5125 20C27.5125 21.545 27.565 21.7025 27.5425 22.295V22.3025ZM26.3425 16.7225C26.2532 16.4802 26.1124 16.2602 25.9298 16.0777C25.7473 15.8951 25.5273 15.7543 25.285 15.665C24.9524 15.5497 24.602 15.4938 24.25 15.5C23.665 15.5 23.5 15.5 22 15.5C20.5 15.5 20.335 15.5 19.75 15.5C19.3962 15.5035 19.0458 15.5695 18.715 15.695C18.4764 15.7802 18.2588 15.9153 18.0764 16.0912C17.8941 16.267 17.7513 16.4797 17.6575 16.715C17.5486 17.049 17.4954 17.3987 17.5 17.75C17.5 18.335 17.5 18.5 17.5 20C17.5 21.5 17.5 21.665 17.5 22.25C17.5074 22.6034 17.5733 22.9531 17.695 23.285C17.7843 23.5273 17.9251 23.7473 18.1077 23.9298C18.2902 24.1124 18.5102 24.2532 18.7525 24.3425C19.0725 24.4602 19.4092 24.526 19.75 24.5375C20.335 24.5375 20.5 24.5375 22 24.5375C23.5 24.5375 23.665 24.5375 24.25 24.5375C24.6038 24.534 24.9542 24.468 25.285 24.3425C25.5273 24.2532 25.7473 24.1124 25.9298 23.9298C26.1124 23.7473 26.2532 23.5273 26.3425 23.285C26.468 22.9542 26.534 22.6038 26.5375 22.25C26.5375 21.665 26.5375 21.5 26.5375 20C26.5375 18.5 26.5375 18.335 26.5375 17.75C26.5377 17.3958 26.4716 17.0448 26.3425 16.715V16.7225ZM22 22.865C21.6241 22.865 21.2519 22.7908 20.9047 22.6468C20.5576 22.5027 20.2422 22.2915 19.9768 22.0254C19.7113 21.7593 19.501 21.4434 19.3579 21.0958C19.2147 20.7483 19.1415 20.3759 19.1425 20C19.1425 19.433 19.3107 18.8788 19.6259 18.4075C19.941 17.9362 20.3889 17.569 20.9129 17.3524C21.4368 17.1358 22.0132 17.0795 22.5692 17.1906C23.1252 17.3018 23.6356 17.5754 24.036 17.9768C24.4364 18.3782 24.7087 18.8894 24.8184 19.4457C24.9281 20.0019 24.8703 20.5782 24.6523 21.1016C24.4343 21.625 24.0659 22.0719 23.5937 22.3858C23.1216 22.6997 22.567 22.8665 22 22.865ZM25 17.6975C24.8342 17.68 24.6808 17.6017 24.5693 17.4777C24.4578 17.3538 24.3961 17.193 24.3961 17.0262C24.3961 16.8595 24.4578 16.6987 24.5693 16.5748C24.6808 16.4508 24.8342 16.3725 25 16.355C25.1658 16.3725 25.3192 16.4508 25.4307 16.5748C25.5422 16.6987 25.6039 16.8595 25.6039 17.0262C25.6039 17.193 25.5422 17.3538 25.4307 17.4777C25.3192 17.6017 25.1658 17.68 25 17.6975Z" fill="#A4C1C8"/>
<defs>
<filter id="filter0_d_2967_935" x="0" y="0" width="48" height="48" filterUnits="userSpaceOnUse" color-interpolation-filters="sRGB">
<feFlood flood-opacity="0" result="BackgroundImageFix"/>
<feColorMatrix in="SourceAlpha" type="matrix" values="0 0 0 0 0 0 0 0 0 0 0 0 0 0 0 0 0 0 127 0" result="hardAlpha"/>
<feOffset dx="2" dy="4"/>
<feGaussianBlur stdDeviation="2"/>
<feComposite in2="hardAlpha" operator="out"/>
<feColorMatrix type="matrix" values="0 0 0 0 0 0 0 0 0 0 0 0 0 0 0 0 0 0 0.01 0"/>
<feBlend mode="normal" in2="BackgroundImageFix" result="effect1_dropShadow_2967_935"/>
<feBlend mode="normal" in="SourceGraphic" in2="effect1_dropShadow_2967_935" result="shape"/>
</filter>
</defs>
</svg>
