<svg width="48" height="48" viewBox="0 0 48 48" fill="none" xmlns="http://www.w3.org/2000/svg">
<g filter="url(#filter0_d_2967_945)">
<circle cx="22" cy="20" r="20" fill="white"/>
</g>
<path d="M25.6666 17.9994C25.0698 17.9991 24.4822 18.1467 23.9564 18.429C23.9084 18.3027 23.8231 18.1939 23.7118 18.1171C23.6005 18.0404 23.4685 17.9993 23.3333 17.9994H20.6666C20.5791 17.9993 20.4924 18.0165 20.4115 18.05C20.3306 18.0835 20.257 18.1326 20.1951 18.1945C20.1332 18.2564 20.0841 18.3299 20.0506 18.4108C20.0171 18.4917 19.9999 18.5785 20 18.666V26.666C19.9999 26.7536 20.0171 26.8403 20.0506 26.9212C20.0841 27.0021 20.1332 27.0756 20.1951 27.1375C20.257 27.1995 20.3306 27.2486 20.4115 27.282C20.4924 27.3155 20.5791 27.3327 20.6666 27.3327H23.3333C23.4209 27.3327 23.5076 27.3155 23.5885 27.282C23.6694 27.2486 23.7429 27.1995 23.8048 27.1375C23.8667 27.0756 23.9159 27.0021 23.9493 26.9212C23.9828 26.8403 24 26.7536 24 26.666V22.9994C24 22.8225 24.0702 22.653 24.1952 22.528C24.3203 22.4029 24.4898 22.3327 24.6666 22.3327C24.8435 22.3327 25.013 22.4029 25.1381 22.528C25.2631 22.653 25.3333 22.8225 25.3333 22.9994V26.666C25.3333 26.7536 25.3505 26.8403 25.384 26.9212C25.4174 27.0021 25.4665 27.0756 25.5285 27.1375C25.5904 27.1995 25.6639 27.2486 25.7448 27.282C25.8257 27.3155 25.9124 27.3327 26 27.3327H28.6666C28.7542 27.3327 28.8409 27.3155 28.9218 27.282C29.0027 27.2486 29.0763 27.1995 29.1382 27.1375C29.2001 27.0756 29.2492 27.0021 29.2827 26.9212C29.3162 26.8403 29.3334 26.7536 29.3333 26.666V21.666C29.3321 20.6939 28.9454 19.762 28.258 19.0746C27.5707 18.3873 26.6387 18.0006 25.6666 17.9994ZM28 25.9994H26.6666V22.9994C26.6666 22.4689 26.4559 21.9602 26.0809 21.5851C25.7058 21.2101 25.1971 20.9994 24.6666 20.9994C24.1362 20.9994 23.6275 21.2101 23.2524 21.5851C22.8774 21.9602 22.6666 22.4689 22.6666 22.9994V25.9994H21.3333V19.3327H22.6666V19.8014C22.6667 19.9396 22.7097 20.0743 22.7896 20.1869C22.8695 20.2996 22.9825 20.3847 23.1128 20.4304C23.2431 20.4762 23.3845 20.4803 23.5173 20.4423C23.6501 20.4042 23.7678 20.3259 23.8541 20.2181C24.1533 19.8381 24.5637 19.5611 25.028 19.4256C25.4922 19.2901 25.9872 19.303 26.4438 19.4625C26.9004 19.622 27.2958 19.92 27.5748 20.3151C27.8537 20.7101 28.0024 21.1824 28 21.666V25.9994ZM18.6666 17.9994H16C15.9124 17.9993 15.8257 18.0165 15.7448 18.05C15.6639 18.0835 15.5904 18.1326 15.5285 18.1945C15.4665 18.2564 15.4174 18.3299 15.384 18.4108C15.3505 18.4917 15.3333 18.5785 15.3333 18.666V26.666C15.3333 26.7536 15.3505 26.8403 15.384 26.9212C15.4174 27.0021 15.4665 27.0756 15.5285 27.1375C15.5904 27.1995 15.6639 27.2486 15.7448 27.282C15.8257 27.3155 15.9124 27.3327 16 27.3327H18.6666C18.7542 27.3327 18.8409 27.3155 18.9218 27.282C19.0027 27.2486 19.0762 27.1995 19.1382 27.1375C19.2001 27.0756 19.2492 27.0021 19.2827 26.9212C19.3162 26.8403 19.3334 26.7536 19.3333 26.666V18.666C19.3334 18.5785 19.3162 18.4917 19.2827 18.4108C19.2492 18.3299 19.2001 18.2564 19.1382 18.1945C19.0762 18.1326 19.0027 18.0835 18.9218 18.05C18.8409 18.0165 18.7542 17.9993 18.6666 17.9994ZM18 25.9994H16.6666V19.3327H18V25.9994ZM17.3431 13.028C17.0513 13.0106 16.7591 13.0526 16.4841 13.1517C16.2091 13.2507 15.9571 13.4046 15.7435 13.6041C15.5298 13.8036 15.359 14.0444 15.2414 14.312C15.1237 14.5795 15.0617 14.8682 15.0592 15.1605C15.0566 15.4528 15.1135 15.7425 15.2264 16.0121C15.3394 16.2817 15.5059 16.5255 15.716 16.7286C15.9261 16.9318 16.1754 17.0902 16.4486 17.194C16.7218 17.2978 17.0133 17.345 17.3053 17.3327H17.3242C17.6167 17.3501 17.9097 17.3076 18.1853 17.2079C18.4609 17.1082 18.7132 16.9534 18.9269 16.7529C19.1406 16.5524 19.3112 16.3104 19.4283 16.0417C19.5453 15.7731 19.6063 15.4834 19.6076 15.1903C19.6089 14.8973 19.5504 14.6071 19.4357 14.3374C19.3211 14.0677 19.1526 13.8242 18.9407 13.6219C18.7287 13.4195 18.4777 13.2624 18.2031 13.1603C17.9284 13.0582 17.6357 13.0132 17.3431 13.028H17.3431ZM17.3242 15.9994H17.3053C17.19 16.0134 17.0731 16.0025 16.9623 15.9676C16.8515 15.9327 16.7495 15.8746 16.6631 15.797C16.5766 15.7194 16.5078 15.6243 16.4611 15.5179C16.4145 15.4116 16.3911 15.2965 16.3926 15.1804C16.3926 14.683 16.7656 14.3613 17.3431 14.3613C17.4595 14.3458 17.578 14.3554 17.6904 14.3895C17.8029 14.4236 17.9067 14.4814 17.9949 14.559C18.0831 14.6367 18.1537 14.7323 18.2018 14.8394C18.25 14.9466 18.2746 15.0629 18.2741 15.1804C18.2741 15.6778 17.901 15.9994 17.3242 15.9994Z" fill="#A4C1C8"/>
<defs>
<filter id="filter0_d_2967_945" x="0" y="0" width="48" height="48" filterUnits="userSpaceOnUse" color-interpolation-filters="sRGB">
<feFlood flood-opacity="0" result="BackgroundImageFix"/>
<feColorMatrix in="SourceAlpha" type="matrix" values="0 0 0 0 0 0 0 0 0 0 0 0 0 0 0 0 0 0 127 0" result="hardAlpha"/>
<feOffset dx="2" dy="4"/>
<feGaussianBlur stdDeviation="2"/>
<feComposite in2="hardAlpha" operator="out"/>
<feColorMatrix type="matrix" values="0 0 0 0 0 0 0 0 0 0 0 0 0 0 0 0 0 0 0.01 0"/>
<feBlend mode="normal" in2="BackgroundImageFix" result="effect1_dropShadow_2967_945"/>
<feBlend mode="normal" in="SourceGraphic" in2="effect1_dropShadow_2967_945" result="shape"/>
</filter>
</defs>
</svg>
