<svg width="48" height="48" viewBox="0 0 48 48" fill="none" xmlns="http://www.w3.org/2000/svg">
<g filter="url(#filter0_d_2967_940)">
<circle cx="22" cy="20" r="20" fill="white"/>
</g>
<path d="M28.6667 15.8666C28.1656 16.084 27.6356 16.2277 27.0933 16.2932C27.6655 15.9514 28.0942 15.4138 28.3 14.7799C27.7624 15.0999 27.1739 15.3254 26.56 15.4466C26.1497 15.0016 25.6033 14.7054 25.0065 14.6045C24.4098 14.5035 23.7964 14.6035 23.2625 14.8887C22.7287 15.1739 22.3046 15.6282 22.0568 16.1805C21.809 16.7327 21.7515 17.3515 21.8933 17.9399C20.8063 17.8849 19.743 17.6019 18.7724 17.1091C17.8019 16.6164 16.9459 15.925 16.26 15.0799C16.0194 15.5 15.893 15.9758 15.8933 16.4599C15.8925 16.9095 16.0028 17.3523 16.2145 17.7489C16.4262 18.1456 16.7327 18.4837 17.1067 18.7332C16.672 18.7214 16.2466 18.6048 15.8667 18.3932V18.4266C15.8699 19.0565 16.0907 19.666 16.4916 20.1519C16.8924 20.6378 17.4488 20.9703 18.0667 21.0932C17.8288 21.1656 17.5819 21.2038 17.3333 21.2066C17.1613 21.2046 16.9896 21.1889 16.82 21.1599C16.996 21.7018 17.3364 22.1753 17.7941 22.5147C18.2517 22.854 18.8037 23.0423 19.3733 23.0532C18.4115 23.8101 17.2239 24.2231 16 24.2266C15.7772 24.2273 15.5545 24.2139 15.3333 24.1866C16.583 24.9934 18.0392 25.4217 19.5267 25.4199C20.5531 25.4306 21.5714 25.2366 22.5221 24.8493C23.4727 24.462 24.3367 23.8892 25.0635 23.1642C25.7903 22.4393 26.3653 21.5768 26.755 20.6272C27.1448 19.6775 27.3414 18.6597 27.3333 17.6332C27.3333 17.5199 27.3333 17.3999 27.3333 17.2799C27.8565 16.8898 28.3077 16.4115 28.6667 15.8666Z" fill="#FF914D"/>
<defs>
<filter id="filter0_d_2967_940" x="0" y="0" width="48" height="48" filterUnits="userSpaceOnUse" color-interpolation-filters="sRGB">
<feFlood flood-opacity="0" result="BackgroundImageFix"/>
<feColorMatrix in="SourceAlpha" type="matrix" values="0 0 0 0 0 0 0 0 0 0 0 0 0 0 0 0 0 0 127 0" result="hardAlpha"/>
<feOffset dx="2" dy="4"/>
<feGaussianBlur stdDeviation="2"/>
<feComposite in2="hardAlpha" operator="out"/>
<feColorMatrix type="matrix" values="0 0 0 0 0 0 0 0 0 0 0 0 0 0 0 0 0 0 0.01 0"/>
<feBlend mode="normal" in2="BackgroundImageFix" result="effect1_dropShadow_2967_940"/>
<feBlend mode="normal" in="SourceGraphic" in2="effect1_dropShadow_2967_940" result="shape"/>
</filter>
</defs>
</svg>
